<mxfile host="app.diagrams.net" agent="Mozilla/5.0 (Windows NT 10.0; Win64; x64) AppleWebKit/537.36 (KHTML, like Gecko) Chrome/130.0.0.0 Safari/537.36" version="24.8.4">
  <diagram name="Page-1" id="LjOk4oi3s7yiCar3wbCg">
    <mxGraphModel dx="875" dy="471" grid="1" gridSize="10" guides="1" tooltips="1" connect="1" arrows="1" fold="1" page="1" pageScale="1" pageWidth="850" pageHeight="1100" math="0" shadow="0">
      <root>
        <mxCell id="0" />
        <mxCell id="1" parent="0" />
        <mxCell id="C4lJ7VNyCfvAv9dhahSU-4" style="edgeStyle=orthogonalEdgeStyle;rounded=0;orthogonalLoop=1;jettySize=auto;html=1;entryX=0.5;entryY=0;entryDx=0;entryDy=0;" edge="1" parent="1" source="C4lJ7VNyCfvAv9dhahSU-1" target="C4lJ7VNyCfvAv9dhahSU-3">
          <mxGeometry relative="1" as="geometry" />
        </mxCell>
        <mxCell id="C4lJ7VNyCfvAv9dhahSU-1" value="/admin/...." style="rounded=0;whiteSpace=wrap;html=1;" vertex="1" parent="1">
          <mxGeometry x="240" y="50" width="160" height="90" as="geometry" />
        </mxCell>
        <mxCell id="C4lJ7VNyCfvAv9dhahSU-5" style="edgeStyle=orthogonalEdgeStyle;rounded=0;orthogonalLoop=1;jettySize=auto;html=1;" edge="1" parent="1" source="C4lJ7VNyCfvAv9dhahSU-3">
          <mxGeometry relative="1" as="geometry">
            <mxPoint x="160" y="250" as="targetPoint" />
          </mxGeometry>
        </mxCell>
        <mxCell id="C4lJ7VNyCfvAv9dhahSU-7" value="&lt;font style=&quot;font-size: 16px;&quot;&gt;false&lt;/font&gt;" style="edgeLabel;html=1;align=center;verticalAlign=middle;resizable=0;points=[];" vertex="1" connectable="0" parent="C4lJ7VNyCfvAv9dhahSU-5">
          <mxGeometry x="-0.0758" y="3" relative="1" as="geometry">
            <mxPoint y="-3" as="offset" />
          </mxGeometry>
        </mxCell>
        <mxCell id="C4lJ7VNyCfvAv9dhahSU-9" style="edgeStyle=orthogonalEdgeStyle;rounded=0;orthogonalLoop=1;jettySize=auto;html=1;entryX=0.5;entryY=0;entryDx=0;entryDy=0;" edge="1" parent="1" source="C4lJ7VNyCfvAv9dhahSU-3" target="C4lJ7VNyCfvAv9dhahSU-8">
          <mxGeometry relative="1" as="geometry" />
        </mxCell>
        <mxCell id="C4lJ7VNyCfvAv9dhahSU-10" value="&lt;font style=&quot;font-size: 16px;&quot;&gt;true&lt;/font&gt;" style="edgeLabel;html=1;align=center;verticalAlign=middle;resizable=0;points=[];" vertex="1" connectable="0" parent="C4lJ7VNyCfvAv9dhahSU-9">
          <mxGeometry x="-0.2686" relative="1" as="geometry">
            <mxPoint as="offset" />
          </mxGeometry>
        </mxCell>
        <mxCell id="C4lJ7VNyCfvAv9dhahSU-3" value="kiểm tra token user&lt;div&gt;trên cookie&lt;/div&gt;" style="rhombus;whiteSpace=wrap;html=1;" vertex="1" parent="1">
          <mxGeometry x="240" y="210" width="160" height="80" as="geometry" />
        </mxCell>
        <mxCell id="C4lJ7VNyCfvAv9dhahSU-6" value="trang đăng nhập" style="rounded=0;whiteSpace=wrap;html=1;" vertex="1" parent="1">
          <mxGeometry x="40" y="220" width="120" height="60" as="geometry" />
        </mxCell>
        <mxCell id="C4lJ7VNyCfvAv9dhahSU-8" value="/admin/..." style="rounded=0;whiteSpace=wrap;html=1;" vertex="1" parent="1">
          <mxGeometry x="240" y="360" width="160" height="80" as="geometry" />
        </mxCell>
        <mxCell id="C4lJ7VNyCfvAv9dhahSU-11" value="Vào trang quản trị bất kì" style="text;html=1;align=center;verticalAlign=middle;resizable=0;points=[];autosize=1;strokeColor=none;fillColor=none;" vertex="1" parent="1">
          <mxGeometry x="260" y="20" width="150" height="30" as="geometry" />
        </mxCell>
      </root>
    </mxGraphModel>
  </diagram>
</mxfile>
